<svg width="90" height="26" viewBox="0 0 90 26" fill="none" xmlns="http://www.w3.org/2000/svg">
<g clip-path="url(#clip0_4295_1648)">
<path d="M66.8653 0.28125H73.2059L82.6452 25.5395H76.5909L74.6557 19.8981H65.428L63.4928 25.5395H57.4385L66.8653 0.28125ZM72.8823 14.8864L71.053 9.59413L70.2067 6.48983H69.8521L69.0058 9.59413L67.1764 14.8864H72.8823Z" fill="#713DA5"/>
<path d="M86.6898 6.63209C86.2169 6.63209 85.7876 6.54482 85.3893 6.37028C84.9911 6.19574 84.6427 5.95887 84.3502 5.66589C84.0578 5.37292 83.8213 5.02384 83.6471 4.6249C83.4729 4.22595 83.3857 3.7896 83.3857 3.32209C83.3857 2.85458 83.4729 2.44316 83.6471 2.03175C83.8213 1.62034 84.0578 1.26503 84.3502 0.972054C84.6427 0.679079 84.9911 0.442206 85.3893 0.267667C85.7876 0.0931286 86.2231 0.00585938 86.6898 0.00585938C87.1378 0.00585938 87.5672 0.0931286 87.9778 0.267667C88.3885 0.442206 88.7432 0.679079 89.0356 0.972054C89.3281 1.26503 89.5645 1.62034 89.7388 2.03175C89.913 2.44316 90.0001 2.87328 90.0001 3.32209C90.0001 3.7896 89.913 4.22595 89.7388 4.6249C89.5645 5.02384 89.3281 5.37292 89.0356 5.66589C88.7432 5.95887 88.3885 6.19574 87.9778 6.37028C87.5672 6.54482 87.1378 6.63209 86.6898 6.63209ZM84.0453 25.5383V8.2528H89.3281V25.5383H84.0453Z" fill="#713DA5"/>
<path d="M15.0706 8.32893V25.5459H12.3266L12.0839 23.04C10.8768 23.9751 9.69454 24.6919 8.5434 25.1906C7.28649 25.7329 6.01091 26.001 4.72289 26.001C1.57438 26.001 0.00634766 24.4239 0.00634766 21.2759V8.32893H3.38508V20.2537C3.38508 21.2884 3.5842 22.0177 3.98243 22.4416C4.38066 22.8655 5.05267 23.0774 5.99224 23.0774C6.93182 23.0774 7.81539 22.8655 8.72385 22.4416C9.5452 22.0551 10.5221 21.5066 11.667 20.796V8.32893H15.0831H15.0706ZM26.5509 8.75281C25.3002 9.28889 24.0495 10.0494 22.7926 11.0343L22.5312 8.32893H19.7125V25.5459H23.0975V13.2721C24.3544 12.5241 25.4495 11.9319 26.3704 11.4893C27.3784 11.0093 28.3802 10.7662 29.3634 10.7662C30.2345 10.7662 30.8443 10.9719 31.1927 11.3834C31.5474 11.7948 31.7216 12.5428 31.7216 13.6212V25.5459H35.1377V12.6363C35.1377 9.48213 33.5759 7.91128 30.4523 7.91128C29.1643 7.91128 27.8576 8.19179 26.5447 8.75904M39.8667 8.32893H43.2143V25.5459H39.8667V8.32893ZM42.3307 0.954679C43.009 0.954679 43.3512 1.29752 43.3512 1.97698V3.9904C43.3512 4.67609 43.009 5.0127 42.3307 5.0127H40.744C40.0658 5.0127 39.7236 4.67609 39.7236 3.9904V1.97698C39.7236 1.29752 40.0658 0.954679 40.744 0.954679H42.3307ZM51.5211 0.830009C50.7682 1.24142 50.2331 1.82737 49.9033 2.57539C49.5735 3.32965 49.4118 4.24598 49.4118 5.33061V8.33516L46.313 8.50347V10.866H49.4118V25.5397H52.8278V10.866H58.1791V8.3227H52.8278V5.71085C52.8278 4.72596 53.0456 4.0091 53.4812 3.57899C53.9167 3.14264 54.6696 2.92447 55.7523 2.92447H59.2368L59.5169 0.493399C59.044 0.42483 58.5026 0.368729 57.8804 0.337561C57.2581 0.30016 56.6421 0.275226 56.0323 0.250292C55.4226 0.225358 54.931 0.212891 54.5514 0.212891C53.2821 0.212891 52.274 0.418597 51.5211 0.830009Z" fill="url(#paint0_linear_4295_1648)"/>
</g>
<defs>
<linearGradient id="paint0_linear_4295_1648" x1="-9.49988" y1="12.3573" x2="73.0001" y2="12.3573" gradientUnits="userSpaceOnUse">
<stop stop-color="#003CA4"/>
<stop offset="0.505" stop-color="#0068C4"/>
<stop offset="1" stop-color="#459DDE"/>
</linearGradient>
<clipPath id="clip0_4295_1648">
<rect width="90" height="26" fill="white"/>
</clipPath>
</defs>
</svg>
